# Blender v2.77 (sub 0) OBJ File: ''
# www.blender.org
mtllib Default Bow.mtl
o Mesh_0042.rip
v -0.020452 0.110499 0.001338
v -0.014319 0.065813 0.000298
v 0.000000 0.110499 0.043421
v 0.000000 0.065813 0.021873
v 0.000000 0.110499 -0.045012
v 0.000000 0.065813 -0.023464
v -0.016701 0.216492 0.005411
v 0.000000 0.216492 0.041495
v 0.000000 0.216492 -0.034332
v 0.000000 0.362222 0.000749
v -0.015139 0.362222 -0.022651
v 0.000000 0.362222 -0.051695
v 0.014319 0.065813 0.000298
v 0.020452 0.110499 0.001338
v 0.016701 0.216492 0.005411
v 0.015139 0.362222 -0.022651
v 0.000000 0.362222 0.000749
v -0.001007 0.533451 -0.071270
v -0.015139 0.362222 -0.022651
v -0.011605 0.528660 -0.088652
v 0.000000 0.362222 -0.051695
v -0.001007 0.523383 -0.107796
v 0.000000 0.721874 -0.195493
v -0.012612 0.711548 -0.214700
v 0.000000 0.701471 -0.232944
v 0.015139 0.362222 -0.022651
v 0.011605 0.528660 -0.088652
v 0.012613 0.711548 -0.214700
v -0.012612 0.785263 -0.268823
v -0.012612 0.711548 -0.214700
v 0.000000 0.813476 -0.248082
v 0.000000 0.721874 -0.195493
v 0.000000 0.896923 -0.268773
v 0.000000 0.800844 -0.296597
v 0.000000 0.749659 -0.292522
v -0.007913 0.735570 -0.265653
v 0.000000 0.719240 -0.254927
v 0.000000 0.701471 -0.232944
v 0.000000 0.731780 -0.271869
v 0.000000 0.678207 -0.282136
v 0.000000 0.616290 -0.260316
v 0.000000 0.676194 -0.243779
v 0.000000 0.719240 -0.254927
v 0.012613 0.711548 -0.214700
v 0.012613 0.785264 -0.268823
v 0.007913 0.735570 -0.265653
v 0.000000 0.719240 -0.254927
v 0.000000 0.676194 -0.243779
v -0.020452 -0.110499 0.001338
v -0.000000 -0.110499 0.043421
v -0.014319 -0.065813 0.000298
v -0.000000 -0.065813 0.021873
v -0.000000 -0.110499 -0.045012
v -0.000000 -0.065813 -0.023464
v -0.016701 -0.216492 0.005411
v -0.000000 -0.216492 0.041495
v -0.000000 -0.216492 -0.034332
v -0.000000 -0.362222 0.000749
v -0.015139 -0.362222 -0.022651
v -0.000000 -0.362222 -0.051695
v 0.014319 -0.065813 0.000298
v 0.020452 -0.110499 0.001338
v 0.016701 -0.216492 0.005411
v 0.015139 -0.362222 -0.022651
v -0.000000 -0.362222 0.000749
v -0.015139 -0.362222 -0.022651
v -0.001007 -0.533451 -0.071270
v -0.011605 -0.528660 -0.088652
v -0.000000 -0.362222 -0.051695
v -0.001007 -0.523383 -0.107796
v -0.000000 -0.721874 -0.195493
v -0.012612 -0.711549 -0.214700
v -0.000000 -0.701471 -0.232944
v 0.015139 -0.362222 -0.022651
v 0.011605 -0.528660 -0.088652
v 0.012613 -0.711549 -0.214700
v -0.012612 -0.785263 -0.268823
v -0.000000 -0.813476 -0.248082
v -0.012612 -0.711549 -0.214700
v -0.000000 -0.721874 -0.195493
v -0.000000 -0.896923 -0.268773
v -0.000000 -0.800844 -0.296597
v -0.000000 -0.749659 -0.292522
v -0.007913 -0.735571 -0.265653
v -0.000000 -0.719240 -0.254927
v -0.000000 -0.701471 -0.232944
v -0.000000 -0.731780 -0.271868
v -0.000000 -0.678207 -0.282136
v -0.000000 -0.616290 -0.260316
v -0.000000 -0.676194 -0.243779
v -0.000000 -0.719240 -0.254927
v 0.012613 -0.711549 -0.214700
v 0.012613 -0.785264 -0.268823
v 0.007913 -0.735571 -0.265653
v -0.000000 -0.719240 -0.254927
v -0.000000 -0.676194 -0.243779
v -0.014319 0.065813 0.000298
v -0.014319 -0.065813 0.000298
v 0.000000 0.065813 0.021873
v -0.000000 -0.065813 0.021873
v -0.000000 -0.065813 -0.023464
v 0.000000 0.065813 -0.023464
v 0.014319 -0.065813 0.000298
v 0.014319 0.065813 0.000298
vt 0.6573 0.7351
vt 0.6593 0.8371
vt 0.5760 0.7351
vt 0.6176 0.8371
vt 0.7469 0.7351
vt 0.7052 0.8371
vt 0.6573 0.4881
vt 0.5760 0.4881
vt 0.7469 0.4881
vt 0.5760 0.1486
vt 0.6573 0.1486
vt 0.7469 0.1486
vt 0.6593 0.8371
vt 0.6573 0.7351
vt 0.6573 0.4881
vt 0.6573 0.1486
vt 0.7997 0.9656
vt 0.7997 0.5667
vt 0.8810 0.9656
vt 0.8810 0.5667
vt 0.9706 0.9656
vt 0.9706 0.5667
vt 0.7997 0.1451
vt 0.8810 0.1451
vt 0.9706 0.1451
vt 0.8810 0.9656
vt 0.8810 0.5667
vt 0.8810 0.1451
vt 0.1515 0.5495
vt 0.1108 0.8763
vt 0.0294 0.4895
vt 0.0294 0.8763
vt 0.0294 0.2452
vt 0.1622 0.4126
vt 0.2808 0.5896
vt 0.2450 0.6842
vt 0.2277 0.7584
vt 0.2003 0.8763
vt 0.2812 0.6508
vt 0.4430 0.7853
vt 0.4924 0.9708
vt 0.3048 0.9072
vt 0.2277 0.7584
vt 0.1108 0.8763
vt 0.1515 0.5495
vt 0.2450 0.6842
vt 0.2277 0.7584
vt 0.3048 0.9072
vt 0.6573 0.7351
vt 0.5760 0.7351
vt 0.6593 0.8371
vt 0.6176 0.8371
vt 0.7469 0.7351
vt 0.7052 0.8371
vt 0.6573 0.4881
vt 0.5760 0.4881
vt 0.7469 0.4881
vt 0.5760 0.1486
vt 0.6573 0.1486
vt 0.7469 0.1486
vt 0.6593 0.8371
vt 0.6573 0.7351
vt 0.6573 0.4881
vt 0.6573 0.1486
vt 0.7997 0.9656
vt 0.8810 0.9656
vt 0.7997 0.5667
vt 0.8810 0.5667
vt 0.9706 0.9656
vt 0.9706 0.5667
vt 0.7997 0.1451
vt 0.8810 0.1451
vt 0.9706 0.1451
vt 0.8810 0.9656
vt 0.8810 0.5667
vt 0.8810 0.1451
vt 0.1515 0.5495
vt 0.0294 0.4895
vt 0.1108 0.8763
vt 0.0294 0.8763
vt 0.0294 0.2452
vt 0.1622 0.4126
vt 0.2808 0.5896
vt 0.2450 0.6842
vt 0.2277 0.7584
vt 0.2003 0.8763
vt 0.2812 0.6508
vt 0.4430 0.7853
vt 0.4924 0.9708
vt 0.3048 0.9072
vt 0.2277 0.7584
vt 0.1108 0.8763
vt 0.1515 0.5495
vt 0.2450 0.6842
vt 0.2277 0.7584
vt 0.3048 0.9072
vt 0.4756 0.5667
vt 0.4756 0.1389
vt 0.4175 0.5667
vt 0.4175 0.1389
vt 0.5397 0.1389
vt 0.5397 0.5667
vt 0.4756 0.1389
vt 0.4756 0.5667
vn -0.9970 -0.0318 -0.0706
vn -0.9900 -0.1236 -0.0684
vn -0.0000 -0.1974 0.9803
vn 0.0000 -0.1552 0.9879
vn 0.0000 -0.2355 -0.9719
vn 0.0000 -0.2310 -0.9729
vn -0.9809 0.0428 0.1896
vn -0.0000 0.1468 0.9892
vn 0.0000 -0.0192 -0.9998
vn -0.0006 0.2911 0.9567
vn -0.9978 0.0486 0.0449
vn -0.0131 -0.2650 -0.9641
vn 0.9900 -0.1236 -0.0684
vn 0.9970 -0.0318 -0.0706
vn 0.9809 0.0428 0.1896
vn 0.9968 0.0553 0.0570
vn -0.0265 0.4464 0.8944
vn -0.9994 0.0334 0.0035
vn -0.0257 -0.4985 -0.8665
vn -0.0141 0.5373 0.8433
vn -0.9881 -0.1348 -0.0741
vn -0.0002 -0.6856 -0.7280
vn 0.9994 0.0353 0.0038
vn 0.9865 -0.1416 -0.0816
vn -0.9944 0.0302 -0.1008
vn 0.0000 0.4441 0.8960
vn -0.0000 0.9721 0.2345
vn 0.0000 0.0890 -0.9960
vn -0.0000 -0.4938 -0.8695
vn -0.9639 -0.1704 -0.2044
vn 0.0000 -0.9961 0.0878
vn -0.0002 -0.6855 -0.7281
vn 0.0000 -0.3020 -0.9533
vn 0.0000 0.0795 -0.9968
vn 0.0000 -0.9981 -0.0615
vn 0.0000 0.1448 0.9895
vn -0.0001 -0.9961 0.0878
vn 0.9944 0.0302 -0.1008
vn 0.9640 -0.1703 -0.2044
vn 0.0001 -0.9961 0.0878
vn 0.9639 -0.1704 -0.2044
vn -0.9970 0.0318 -0.0706
vn -0.0000 0.1974 0.9803
vn -0.9864 0.1236 0.1085
vn 0.0000 0.2306 0.9730
vn 0.0000 0.2355 -0.9719
vn -0.0000 0.1556 -0.9878
vn -0.9809 -0.0428 0.1896
vn 0.0000 -0.1468 0.9892
vn 0.0000 0.0192 -0.9998
vn -0.0006 -0.2911 0.9567
vn -0.9978 -0.0486 0.0449
vn -0.0131 0.2650 -0.9641
vn 0.9864 0.1236 0.1085
vn 0.9970 0.0318 -0.0706
vn 0.9809 -0.0428 0.1896
vn 0.9968 -0.0553 0.0570
vn -0.0265 -0.4464 0.8944
vn -0.9994 -0.0333 0.0034
vn -0.0257 0.4985 -0.8665
vn -0.0141 -0.5373 0.8433
vn -0.9881 0.1348 -0.0741
vn -0.0002 0.6855 -0.7281
vn 0.9994 -0.0353 0.0038
vn 0.9865 0.1416 -0.0816
vn -0.9944 -0.0302 -0.1008
vn -0.0000 -0.4441 0.8960
vn -0.0000 -0.9721 0.2345
vn 0.0000 -0.0890 -0.9960
vn 0.0000 0.4939 -0.8695
vn -0.9640 0.1703 -0.2044
vn 0.0000 0.9961 0.0878
vn 0.0000 0.3020 -0.9533
vn 0.0000 -0.0795 -0.9968
vn 0.0000 0.9981 -0.0615
vn 0.0000 -0.1448 0.9895
vn -0.0001 0.9961 0.0878
vn 0.9944 -0.0302 -0.1008
vn 0.9640 0.1703 -0.2044
vn 0.0001 0.9961 0.0878
vn 0.9639 0.1703 -0.2044
vn -0.9864 0.1237 0.1085
vn -0.0000 0.2306 0.9731
vn -0.0000 -0.2311 -0.9729
vn 0.9864 0.1237 0.1085
usemtl Tex_0084_0.png
s 1
f 1/1/1 2/2/2 3/3/3
f 3/3/3 2/2/2 4/4/4
f 5/5/5 2/2/2 1/1/1
f 6/6/6 2/2/2 5/5/5
f 1/1/1 3/3/3 7/7/7
f 7/7/7 3/3/3 8/8/8
f 5/5/5 1/1/1 9/9/9
f 9/9/9 1/1/1 7/7/7
f 8/8/8 10/10/10 7/7/7
f 7/7/7 10/10/10 11/11/11
f 7/7/7 11/11/11 9/9/9
f 9/9/9 11/11/11 12/12/12
f 3/3/3 4/4/4 13/13/13
f 6/6/6 5/5/5 13/13/13
f 14/14/14 3/3/3 13/13/13
f 5/5/5 14/14/14 13/13/13
f 5/5/5 9/9/9 14/14/14
f 14/14/14 15/15/15 3/3/3
f 15/15/15 8/8/8 3/3/3
f 9/9/9 15/15/15 14/14/14
f 8/8/8 15/15/15 10/10/10
f 15/15/15 16/16/16 10/10/10
f 15/15/15 9/9/9 16/16/16
f 9/9/9 12/12/12 16/16/16
f 17/17/10 18/18/17 19/19/11
f 19/19/11 18/18/17 20/20/18
f 19/19/11 20/20/18 21/21/12
f 21/21/12 20/20/18 22/22/19
f 18/18/17 23/23/20 20/20/18
f 20/20/18 23/23/20 24/24/21
f 20/20/18 24/24/21 22/22/19
f 22/22/19 24/24/21 25/25/22
f 17/17/10 26/26/16 18/18/17
f 26/26/16 27/27/23 18/18/17
f 26/26/16 21/21/12 27/27/23
f 21/21/12 22/22/19 27/27/23
f 18/18/17 27/27/23 23/23/20
f 27/27/23 28/28/24 23/23/20
f 27/27/23 22/22/19 28/28/24
f 22/22/19 25/25/22 28/28/24
f 29/29/25 30/30/21 31/31/26
f 31/31/26 30/30/21 32/32/20
f 29/29/25 31/31/26 33/33/27
f 34/34/28 29/29/25 33/33/27
f 35/35/29 29/29/25 34/34/28
f 35/35/29 36/36/30 29/29/25
f 30/30/21 29/29/25 36/36/30
f 36/36/30 37/37/31 30/30/21
f 38/38/32 30/30/21 37/37/31
f 35/35/29 39/39/33 36/36/30
f 39/39/33 40/40/34 36/36/30
f 36/36/30 40/40/34 41/41/35
f 42/42/36 36/36/30 41/41/35
f 43/43/37 36/36/30 42/42/36
f 31/31/26 32/32/20 44/44/24
f 38/38/32 37/37/31 44/44/24
f 45/45/38 31/31/26 44/44/24
f 45/45/38 33/33/27 31/31/26
f 35/35/29 34/34/28 45/45/38
f 34/34/28 33/33/27 45/45/38
f 46/46/39 44/44/24 37/37/31
f 35/35/29 45/45/38 46/46/39
f 42/42/36 41/41/35 46/46/39
f 39/39/33 46/46/39 40/40/34
f 46/46/39 41/41/35 40/40/34
f 44/44/24 46/46/39 45/45/38
f 35/35/29 46/46/39 39/39/33
f 47/47/40 48/48/36 46/46/41
f 49/49/42 50/50/43 51/51/44
f 50/50/43 52/52/45 51/51/44
f 53/53/46 49/49/42 51/51/44
f 54/54/47 53/53/46 51/51/44
f 49/49/42 55/55/48 50/50/43
f 55/55/48 56/56/49 50/50/43
f 53/53/46 57/57/50 49/49/42
f 57/57/50 55/55/48 49/49/42
f 56/56/49 55/55/48 58/58/51
f 55/55/48 59/59/52 58/58/51
f 55/55/48 57/57/50 59/59/52
f 57/57/50 60/60/53 59/59/52
f 50/50/43 61/61/54 52/52/45
f 54/54/47 61/61/54 53/53/46
f 62/62/55 61/61/54 50/50/43
f 53/53/46 61/61/54 62/62/55
f 53/53/46 62/62/55 57/57/50
f 62/62/55 50/50/43 63/63/56
f 63/63/56 50/50/43 56/56/49
f 57/57/50 62/62/55 63/63/56
f 56/56/49 58/58/51 63/63/56
f 63/63/56 58/58/51 64/64/57
f 63/63/56 64/64/57 57/57/50
f 57/57/50 64/64/57 60/60/53
f 65/65/51 66/66/52 67/67/58
f 66/66/52 68/68/59 67/67/58
f 66/66/52 69/69/53 68/68/59
f 69/69/53 70/70/60 68/68/59
f 67/67/58 68/68/59 71/71/61
f 68/68/59 72/72/62 71/71/61
f 68/68/59 70/70/60 72/72/62
f 70/70/60 73/73/63 72/72/62
f 65/65/51 67/67/58 74/74/57
f 74/74/57 67/67/58 75/75/64
f 74/74/57 75/75/64 69/69/53
f 69/69/53 75/75/64 70/70/60
f 67/67/58 71/71/61 75/75/64
f 75/75/64 71/71/61 76/76/65
f 75/75/64 76/76/65 70/70/60
f 70/70/60 76/76/65 73/73/63
f 77/77/66 78/78/67 79/79/62
f 78/78/67 80/80/61 79/79/62
f 77/77/66 81/81/68 78/78/67
f 82/82/69 81/81/68 77/77/66
f 83/83/70 82/82/69 77/77/66
f 83/83/70 77/77/66 84/84/71
f 79/79/62 84/84/71 77/77/66
f 84/84/71 79/79/62 85/85/72
f 86/86/63 85/85/72 79/79/62
f 83/83/70 84/84/71 87/87/73
f 87/87/73 84/84/71 88/88/74
f 84/84/71 89/89/75 88/88/74
f 90/90/76 89/89/75 84/84/71
f 91/91/77 90/90/76 84/84/71
f 78/78/67 92/92/65 80/80/61
f 86/86/63 92/92/65 85/85/72
f 93/93/78 92/92/65 78/78/67
f 93/93/78 78/78/67 81/81/68
f 83/83/70 93/93/78 82/82/69
f 82/82/69 93/93/78 81/81/68
f 94/94/79 85/85/72 92/92/65
f 83/83/70 94/94/79 93/93/78
f 90/90/76 94/94/79 89/89/75
f 87/87/73 88/88/74 94/94/79
f 94/94/79 88/88/74 89/89/75
f 92/92/65 93/93/78 94/94/79
f 83/83/70 87/87/73 94/94/79
f 95/95/80 94/94/81 96/96/76
f 97/97/2 98/98/82 99/99/4
f 98/98/82 100/100/83 99/99/4
f 101/101/47 98/98/82 97/97/2
f 102/102/84 101/101/47 97/97/2
f 100/100/83 103/103/85 99/99/4
f 103/103/85 104/104/13 99/99/4
f 103/103/85 101/101/47 104/104/13
f 101/101/47 102/102/84 104/104/13
